<svg id="visual" viewBox="0 0 900 600" width="900" height="600" xmlns="http://www.w3.org/2000/svg" xmlns:xlink="http://www.w3.org/1999/xlink" version="1.1"><rect x="0" y="0" width="900" height="600" fill="#faf9f6"></rect><path d="M0 149L21.5 152C43 155 86 161 128.8 158.5C171.7 156 214.3 145 257.2 157.7C300 170.3 343 206.7 385.8 216.7C428.7 226.7 471.3 210.3 514.2 204.8C557 199.3 600 204.7 642.8 191.2C685.7 177.7 728.3 145.3 771.2 135C814 124.7 857 136.3 878.5 142.2L900 148L900 601L878.5 601C857 601 814 601 771.2 601C728.3 601 685.7 601 642.8 601C600 601 557 601 514.2 601C471.3 601 428.7 601 385.8 601C343 601 300 601 257.2 601C214.3 601 171.7 601 128.8 601C86 601 43 601 21.5 601L0 601Z" fill="#a4a3f1"></path><path d="M0 270L21.5 273C43 276 86 282 128.8 278.2C171.7 274.3 214.3 260.7 257.2 248C300 235.3 343 223.7 385.8 221.8C428.7 220 471.3 228 514.2 235.8C557 243.7 600 251.3 642.8 260.2C685.7 269 728.3 279 771.2 276.3C814 273.7 857 258.3 878.5 250.7L900 243L900 601L878.5 601C857 601 814 601 771.2 601C728.3 601 685.7 601 642.8 601C600 601 557 601 514.2 601C471.3 601 428.7 601 385.8 601C343 601 300 601 257.2 601C214.3 601 171.7 601 128.8 601C86 601 43 601 21.5 601L0 601Z" fill="#9691f5"></path><path d="M0 247L21.5 247.2C43 247.3 86 247.7 128.8 246.7C171.7 245.7 214.3 243.3 257.2 244.2C300 245 343 249 385.8 252.7C428.7 256.3 471.3 259.7 514.2 266.8C557 274 600 285 642.8 300.5C685.7 316 728.3 336 771.2 345.3C814 354.7 857 353.3 878.5 352.7L900 352L900 601L878.5 601C857 601 814 601 771.2 601C728.3 601 685.7 601 642.8 601C600 601 557 601 514.2 601C471.3 601 428.7 601 385.8 601C343 601 300 601 257.2 601C214.3 601 171.7 601 128.8 601C86 601 43 601 21.5 601L0 601Z" fill="#8a7ef8"></path><path d="M0 321L21.5 332C43 343 86 365 128.8 367.8C171.7 370.7 214.3 354.3 257.2 346.7C300 339 343 340 385.8 345C428.7 350 471.3 359 514.2 359.8C557 360.7 600 353.3 642.8 344.2C685.7 335 728.3 324 771.2 321.2C814 318.3 857 323.7 878.5 326.3L900 329L900 601L878.5 601C857 601 814 601 771.2 601C728.3 601 685.7 601 642.8 601C600 601 557 601 514.2 601C471.3 601 428.7 601 385.8 601C343 601 300 601 257.2 601C214.3 601 171.7 601 128.8 601C86 601 43 601 21.5 601L0 601Z" fill="#806af9"></path><path d="M0 450L21.5 445.3C43 440.7 86 431.3 128.8 431.7C171.7 432 214.3 442 257.2 447.7C300 453.3 343 454.7 385.8 443.7C428.7 432.7 471.3 409.3 514.2 402.3C557 395.3 600 404.7 642.8 404.8C685.7 405 728.3 396 771.2 391C814 386 857 385 878.5 384.5L900 384L900 601L878.5 601C857 601 814 601 771.2 601C728.3 601 685.7 601 642.8 601C600 601 557 601 514.2 601C471.3 601 428.7 601 385.8 601C343 601 300 601 257.2 601C214.3 601 171.7 601 128.8 601C86 601 43 601 21.5 601L0 601Z" fill="#7854f9"></path><path d="M0 501L21.5 492.3C43 483.7 86 466.3 128.8 460.7C171.7 455 214.3 461 257.2 467C300 473 343 479 385.8 477.8C428.7 476.7 471.3 468.3 514.2 467.8C557 467.3 600 474.7 642.8 475.8C685.7 477 728.3 472 771.2 473.2C814 474.3 857 481.7 878.5 485.3L900 489L900 601L878.5 601C857 601 814 601 771.2 601C728.3 601 685.7 601 642.8 601C600 601 557 601 514.2 601C471.3 601 428.7 601 385.8 601C343 601 300 601 257.2 601C214.3 601 171.7 601 128.8 601C86 601 43 601 21.5 601L0 601Z" fill="#7239f7"></path><path d="M0 518L21.5 521C43 524 86 530 128.8 530.3C171.7 530.7 214.3 525.3 257.2 518.7C300 512 343 504 385.8 502.3C428.7 500.7 471.3 505.3 514.2 508.5C557 511.7 600 513.3 642.8 511.7C685.7 510 728.3 505 771.2 504.7C814 504.3 857 508.7 878.5 510.8L900 513L900 601L878.5 601C857 601 814 601 771.2 601C728.3 601 685.7 601 642.8 601C600 601 557 601 514.2 601C471.3 601 428.7 601 385.8 601C343 601 300 601 257.2 601C214.3 601 171.7 601 128.8 601C86 601 43 601 21.5 601L0 601Z" fill="#6e07f3"></path></svg>