<svg id="visual" viewBox="0 0 900 600" width="900" height="600" xmlns="http://www.w3.org/2000/svg" xmlns:xlink="http://www.w3.org/1999/xlink" version="1.1"><path d="M0 301L12.5 286C25 271 50 241 75 244C100 247 125 283 150 275C175 267 200 215 225 189C250 163 275 163 300 163C325 163 350 163 375 182C400 201 425 239 450 235C475 231 500 185 525 187C550 189 575 239 600 249C625 259 650 229 675 222C700 215 725 231 750 226C775 221 800 195 825 195C850 195 875 221 887.5 234L900 247L900 0L887.5 0C875 0 850 0 825 0C800 0 775 0 750 0C725 0 700 0 675 0C650 0 625 0 600 0C575 0 550 0 525 0C500 0 475 0 450 0C425 0 400 0 375 0C350 0 325 0 300 0C275 0 250 0 225 0C200 0 175 0 150 0C125 0 100 0 75 0C50 0 25 0 12.5 0L0 0Z" fill="#141c3a"></path><path d="M0 469L12.5 457C25 445 50 421 75 424C100 427 125 457 150 470C175 483 200 479 225 471C250 463 275 451 300 441C325 431 350 423 375 421C400 419 425 423 450 424C475 425 500 423 525 424C550 425 575 429 600 442C625 455 650 477 675 489C700 501 725 503 750 503C775 503 800 501 825 483C850 465 875 431 887.5 414L900 397L900 245L887.5 232C875 219 850 193 825 193C800 193 775 219 750 224C725 229 700 213 675 220C650 227 625 257 600 247C575 237 550 187 525 185C500 183 475 229 450 233C425 237 400 199 375 180C350 161 325 161 300 161C275 161 250 161 225 187C200 213 175 265 150 273C125 281 100 245 75 242C50 239 25 269 12.5 284L0 299Z" fill="#192b9a"></path><path d="M0 601L12.5 601C25 601 50 601 75 601C100 601 125 601 150 601C175 601 200 601 225 601C250 601 275 601 300 601C325 601 350 601 375 601C400 601 425 601 450 601C475 601 500 601 525 601C550 601 575 601 600 601C625 601 650 601 675 601C700 601 725 601 750 601C775 601 800 601 825 601C850 601 875 601 887.5 601L900 601L900 395L887.5 412C875 429 850 463 825 481C800 499 775 501 750 501C725 501 700 499 675 487C650 475 625 453 600 440C575 427 550 423 525 422C500 421 475 423 450 422C425 421 400 417 375 419C350 421 325 429 300 439C275 449 250 461 225 469C200 477 175 481 150 468C125 455 100 425 75 422C50 419 25 443 12.5 455L0 467Z" fill="#6e07f3"></path></svg>